<svg version="1.2" xmlns="http://www.w3.org/2000/svg" viewBox="0 0 15 14" width="15" height="14"><style></style><path  d="m0.5 1.5c-0.3 0-0.5-0.2-0.5-0.5 0-0.2 0.2-0.5 0.5-0.5h0.7q0 0 0 0 0.7 0 1.2 0.3 0.6 0.4 0.8 1.2 0 0 0.1 0l0.1 0.5h0.3v-2c0-0.3 0.2-0.5 0.5-0.5h2.6c0.3 0 0.5 0.2 0.5 0.5v1.2c0.4-0.4 1-0.7 1.6-0.7q0.4 0 0.8 0.2c0.5-0.6 1.2-0.9 2-0.9 1.3 0 2.4 1 2.7 2.2h0.1c0.3 0 0.5 0.2 0.5 0.5q0 0.1 0 0.1l-1.3 5.2c-0.1 0.2-0.3 0.3-0.5 0.3h-8.1c0.1 0.7 0.3 1 0.6 1.2 0.3 0.2 0.8 0.2 1.6 0.2h5.8c0.2 0 0.5 0.2 0.5 0.5 0 0.2-0.3 0.5-0.5 0.5h-5.8c-1 0-1.7-0.1-2.2-0.4-0.5-0.3-0.8-0.9-1.1-2l-1.7-6.3q0 0 0-0.1-0.1-0.4-0.4-0.5-0.3-0.2-0.7-0.2 0 0 0 0h-0.7zm10.7 2h-4.6-2.9l1.1 4.2h8l1.1-4.2zm-3.1 1c0-0.1 0.2-0.3 0.4-0.3 0.2 0 0.3 0.2 0.3 0.3v1.9c0 0.1-0.1 0.3-0.3 0.3-0.2 0-0.4-0.2-0.4-0.3zm-2 0c0-0.2 0.1-0.3 0.3-0.3 0.2 0 0.4 0.1 0.4 0.3v1.9c0 0.1-0.2 0.2-0.4 0.2-0.2 0-0.3-0.1-0.3-0.2zm4.2-2.9q0.5 0.3 0.7 0.9h2.4c-0.2-0.8-0.9-1.4-1.8-1.4-0.5 0-0.9 0.2-1.3 0.5zm-0.1 2.9c0-0.2 0.2-0.3 0.3-0.3 0.2 0 0.4 0.1 0.4 0.3v1.8c0 0.2-0.2 0.3-0.4 0.3-0.1 0-0.3-0.1-0.3-0.3zm-3.5-2q0 0 0-0.1v-1.5c0-0.2-0.2-0.4-0.4-0.4h-1.8c-0.2 0-0.4 0.2-0.4 0.4v1.6zm4.9 9.1c0.6 0 1.2 0.5 1.2 1.2 0 0.6-0.6 1.2-1.2 1.2-0.7 0-1.2-0.6-1.2-1.2 0-0.7 0.5-1.2 1.2-1.2zm-5.4 0c0.7 0 1.2 0.5 1.2 1.2 0 0.6-0.5 1.2-1.2 1.2-0.6 0-1.2-0.6-1.2-1.2 0-0.7 0.6-1.2 1.2-1.2z"/></svg>